<?xml version="1.0" encoding="UTF-8" standalone="no"?>
<svg
   xmlns:dc="http://purl.org/dc/elements/1.1/"
   xmlns:cc="http://creativecommons.org/ns#"
   xmlns:rdf="http://www.w3.org/1999/02/22-rdf-syntax-ns#"
   xmlns:svg="http://www.w3.org/2000/svg"
   xmlns="http://www.w3.org/2000/svg"
   xmlns:xlink="http://www.w3.org/1999/xlink"
   id="svg1960"
   version="1.1"
   viewBox="0 0 26.458333 26.458334"
   height="100"
   width="100">
  <defs
     id="defs1954">
    <linearGradient
       y2="3197.1458"
       x2="2976.2783"
       y1="3197.0515"
       x1="2929.7073"
       gradientTransform="matrix(0.27676118,0.86778968,0.86778968,-0.27676118,-5354.7157,1645.3384)"
       gradientUnits="userSpaceOnUse"
       id="linearGradient1318"
       xlink:href="#linearGradient10718" />
    <linearGradient
       id="linearGradient10718">
      <stop
         id="stop10714"
         offset="0"
         style="stop-color:#333333;stop-opacity:1" />
      <stop
         style="stop-color:#808080;stop-opacity:1"
         offset="0.40160105"
         id="stop10724" />
      <stop
         id="stop10716"
         offset="1"
         style="stop-color:#4d4d4d;stop-opacity:1" />
    </linearGradient>
    <radialGradient
       r="26.180408"
       fy="3239.4736"
       fx="2721.2083"
       cy="3239.4736"
       cx="2721.2083"
       gradientTransform="matrix(-1.72527,1.5239027,1.3047671,1.7714073,-1527.3437,-6612.2743)"
       gradientUnits="userSpaceOnUse"
       id="radialGradient1320"
       xlink:href="#linearGradient1030" />
    <linearGradient
       id="linearGradient1030">
      <stop
         id="stop1024"
         offset="0"
         style="stop-color:#b3b3b3;stop-opacity:1" />
      <stop
         style="stop-color:#666666;stop-opacity:1"
         offset="0.6102609"
         id="stop1026" />
      <stop
         id="stop1028"
         offset="1"
         style="stop-color:#666666;stop-opacity:1" />
    </linearGradient>
    <linearGradient
       y2="3506.9519"
       x2="3814.8911"
       y1="3607.3611"
       x1="3671.0645"
       gradientTransform="matrix(-0.82470206,0.67846606,0.67846606,0.82470206,-1257.3372,-2104.2325)"
       gradientUnits="userSpaceOnUse"
       id="linearGradient1322"
       xlink:href="#linearGradient4196" />
    <linearGradient
       id="linearGradient4196">
      <stop
         id="stop4190"
         offset="0"
         style="stop-color:#e6e6e6;stop-opacity:1" />
      <stop
         style="stop-color:#b3b3b3;stop-opacity:1"
         offset="0.74738526"
         id="stop4192" />
      <stop
         id="stop4194"
         offset="1"
         style="stop-color:#e4d6d6;stop-opacity:1" />
    </linearGradient>
    <radialGradient
       r="34.605614"
       fy="3404.592"
       fx="4013.6946"
       cy="3404.592"
       cx="4013.6946"
       gradientTransform="matrix(1.6219435,0.18623922,-0.17467066,1.3952412,-7906.4317,-2156.8321)"
       gradientUnits="userSpaceOnUse"
       id="radialGradient1324"
       xlink:href="#linearGradient1030" />
    <radialGradient
       r="34.605614"
       fy="3404.592"
       fx="4013.6946"
       cy="3404.592"
       cx="4013.6946"
       gradientTransform="matrix(1.6219435,0.18623922,-0.17467066,1.3952412,-7882.2629,-2112.8413)"
       gradientUnits="userSpaceOnUse"
       id="radialGradient1326"
       xlink:href="#linearGradient1030" />
    <radialGradient
       r="34.605614"
       fy="3404.592"
       fx="4013.6946"
       cy="3404.592"
       cx="4013.6946"
       gradientTransform="matrix(1.6219435,0.18623922,-0.17467066,1.3952412,-7854.0156,-2070.5028)"
       gradientUnits="userSpaceOnUse"
       id="radialGradient1328"
       xlink:href="#linearGradient1030" />
    <linearGradient
       y2="2470.6492"
       x2="7323.3096"
       y1="2417.7805"
       x1="7430.6851"
       gradientUnits="userSpaceOnUse"
       id="linearGradient1330"
       xlink:href="#linearGradient10478" />
    <linearGradient
       id="linearGradient10478">
      <stop
         id="stop10474"
         offset="0"
         style="stop-color:#ffffff;stop-opacity:1;" />
      <stop
         id="stop10476"
         offset="1"
         style="stop-color:#cccccc;stop-opacity:1" />
    </linearGradient>
    <linearGradient
       y2="3197.1458"
       x2="2976.2783"
       y1="3197.0515"
       x1="2929.7073"
       gradientTransform="matrix(1.3061214,0,0,1.3061214,-6377.5574,-1592.6513)"
       gradientUnits="userSpaceOnUse"
       id="linearGradient1332"
       xlink:href="#linearGradient10718" />
    <linearGradient
       y2="2693.4473"
       x2="2346.425"
       y1="2920.0547"
       x1="2134.1455"
       gradientTransform="translate(15.489603,31.175873)"
       gradientUnits="userSpaceOnUse"
       id="linearGradient1334"
       xlink:href="#linearGradient10244" />
    <linearGradient
       id="linearGradient10244">
      <stop
         id="stop10240"
         offset="0"
         style="stop-color:#808080;stop-opacity:1" />
      <stop
         id="stop10242"
         offset="1"
         style="stop-color:#e6e6e6;stop-opacity:1" />
    </linearGradient>
    <linearGradient
       y2="2767.0906"
       x2="2245.9543"
       y1="2848.0342"
       x1="2121.3887"
       gradientTransform="translate(15.489603,31.175873)"
       gradientUnits="userSpaceOnUse"
       id="linearGradient1336"
       xlink:href="#linearGradient10419" />
    <linearGradient
       id="linearGradient10419">
      <stop
         id="stop10415"
         offset="0"
         style="stop-color:#713300;stop-opacity:1" />
      <stop
         id="stop10417"
         offset="1"
         style="stop-color:#b85400;stop-opacity:0" />
    </linearGradient>
    <linearGradient
       y2="2767.0906"
       x2="2245.9543"
       y1="2848.0342"
       x1="2121.3887"
       gradientTransform="translate(193.4896,31.175873)"
       gradientUnits="userSpaceOnUse"
       id="linearGradient1338"
       xlink:href="#linearGradient10419" />
  </defs>
  <metadata
     id="metadata1957">
    <rdf:RDF>
      <cc:Work
         rdf:about="">
        <dc:format>image/svg+xml</dc:format>
        <dc:type
           rdf:resource="http://purl.org/dc/dcmitype/StillImage" />
        <dc:title></dc:title>
      </cc:Work>
    </rdf:RDF>
  </metadata>
  <g
     transform="translate(0,-270.54165)"
     id="layer1">
    <g
       id="g1952"
       transform="matrix(0.82682292,0,0,0.82682292,46.961816,538.58302)">
      <rect
         style="opacity:0;fill:#91fffe;fill-opacity:1;stroke-width:0.00641912"
         id="rect1760"
         width="32"
         height="32"
         x="-56.649334"
         y="-324.04517" />
      <g
         id="g1873"
         transform="matrix(1.9865484,0,0,1.9865484,20.336169,379.16503)">
        <rect
           y="-353.93176"
           x="-38.699226"
           height="15.999996"
           width="15.999996"
           id="rect1204"
           style="opacity:0;fill:#91fffe;fill-opacity:1;stroke-width:0.00320956" />
        <path
           style="opacity:1;fill:#00b3ff;fill-opacity:1;stroke-width:0.02187873"
           d="m -31.075697,-349.71134 c -3.047668,0 -4.624689,4.5e-4 -5.452889,0.008 -0.414099,0.003 -0.641001,0.008 -0.770926,0.0173 -0.06497,0.003 -0.105702,0.008 -0.133446,0.0134 -0.02776,0.005 -0.04253,0.0118 -0.05564,0.0185 -0.03808,0.0203 -0.07234,0.0412 -0.1035,0.0632 -0.03116,0.022 -0.05919,0.0452 -0.08491,0.0704 -0.02571,0.0252 -0.04912,0.0523 -0.07088,0.0822 -0.02178,0.0297 -0.04196,0.0623 -0.06127,0.0981 l -0.06667,0.12385 v 3.74862 3.74856 l 0.08218,0.13948 c 0.02191,0.0371 0.0472,0.0726 0.07495,0.1057 0.02775,0.0329 0.05793,0.0634 0.08952,0.0904 0.03159,0.0271 0.06461,0.0507 0.09802,0.0701 0.03343,0.0193 0.06725,0.0346 0.100509,0.0445 0.02398,0.007 0.818972,0.0134 2.000235,0.018 1.181266,0.005 2.748769,0.008 4.317803,0.008 1.569032,10e-4 3.139575,7.6e-4 4.326859,-0.002 1.187283,-0.003 1.991312,-0.007 2.027328,-0.0151 0.02696,-0.005 0.06873,-0.0257 0.114267,-0.0543 0.04554,-0.0286 0.09487,-0.0652 0.136999,-0.10301 0.03297,-0.0296 0.06153,-0.0513 0.08632,-0.0745 0.0124,-0.0118 0.02388,-0.0235 0.03444,-0.0371 0.01057,-0.0134 0.02022,-0.0287 0.0291,-0.0465 0.0089,-0.0178 0.01697,-0.0385 0.02432,-0.0632 0.0073,-0.0245 0.01396,-0.0531 0.01991,-0.0869 0.0119,-0.0674 0.02117,-0.15544 0.02837,-0.27343 0.0072,-0.11814 0.01232,-0.26624 0.01598,-0.45399 0.0037,-0.18776 0.0058,-0.41508 0.0071,-0.69157 0.0026,-0.55297 0.0015,-1.30246 0.0015,-2.32457 0,-0.98136 3.28e-4,-1.70935 -0.002,-2.2527 -0.0023,-0.54335 -0.0072,-0.90202 -0.01782,-1.14475 -0.0053,-0.12133 -0.01201,-0.21374 -0.02051,-0.2857 -0.0085,-0.0719 -0.01876,-0.12351 -0.0312,-0.16334 -0.01243,-0.0398 -0.02705,-0.0677 -0.04419,-0.0924 -0.01714,-0.0247 -0.03682,-0.0462 -0.0594,-0.0731 -0.02216,-0.0264 -0.05668,-0.058 -0.09444,-0.0877 -0.03777,-0.0297 -0.07875,-0.0576 -0.113881,-0.0765 l -0.127767,-0.0684 z"
           id="path1206" />
        <path
           style="fill:#ffffff;stroke-width:0.01912476"
           d="m -30.50617,-341.24315 -0.07281,-0.0728 h -0.654354 -0.654352 l -0.05273,0.0593 c -0.004,0.005 -0.0084,0.008 -0.0126,0.0134 -0.181799,0 -0.367019,-2e-5 -0.536754,0 -0.02042,-0.0229 -0.03855,-0.0491 -0.05376,-0.0783 -0.04408,-0.085 -0.04714,-0.23643 -0.0064,-0.31537 0.03852,-0.0745 0.152922,-0.17277 0.21759,-0.18712 0.02874,-0.007 0.06085,-0.0151 0.07135,-0.018 v 0 c 0.03292,-0.0118 0.03946,-0.0101 0.133798,0.0183 0.05263,0.0151 0.121565,0.0565 0.160922,0.0949 l 0.06888,0.0672 0.731314,0.005 0.731357,0.005 0.407449,0.40741 z m 1.147308,0 c -0.0116,-0.0308 -0.01647,-0.067 -0.01995,-0.12604 l -0.0076,-0.12838 -0.127211,-0.12957 -0.127262,-0.12956 v -0.41014 -0.41013 l 0.129094,-0.13007 c 0.125833,-0.12687 0.129093,-0.13259 0.129093,-0.22878 0,-0.17015 0.07019,-0.28247 0.219898,-0.35177 v 0 c 0.0893,-0.0413 0.15099,-0.0449 0.241007,-0.0134 0.401928,0.13863 0.299013,0.70194 -0.128572,0.70388 -0.09132,3.8e-4 -0.103315,0.007 -0.176911,0.086 l -0.07893,0.0857 v 0.25904 0.25905 l 0.07697,0.0835 c 0.0745,0.0808 0.08125,0.0837 0.209303,0.0909 0.112456,0.007 0.143243,0.0168 0.205112,0.0655 0.139328,0.11108 0.180062,0.28213 0.117801,0.4248 z m 1.607575,0 -0.173023,-0.17324 -0.339461,-0.33986 -0.0052,-1.41934 -0.005,-1.41942 -0.06755,-0.0692 c -0.17939,-0.1837 -0.133682,-0.46107 0.09696,-0.58833 v 0 c 0.06201,-0.0343 0.240906,-0.0267 0.315359,0.0135 0.113936,0.0612 0.178328,0.15947 0.187509,0.28665 0.0094,0.12889 -0.03094,0.22769 -0.127985,0.31395 l -0.05935,0.0526 v 1.34221 1.34222 l 0.344249,0.34608 0.310703,0.31238 z m 1.377376,0 -0.07755,-0.0778 -0.24353,-0.24412 h -0.09594 c -0.30244,-0.001 -0.484025,-0.30166 -0.331983,-0.54906 0.04305,-0.0701 0.126859,-0.13527 0.203404,-0.1583 l 4.15e-4,-4.3e-4 c 0.233955,-0.0706 0.460648,0.11309 0.462574,0.37338 v 0.096 l 0.296431,0.29595 0.264894,0.26447 z m -7.446886,-6.4e-4 c -0.115616,0 -0.236062,-2.2e-4 -0.344247,-2.2e-4 v -0.6361 l 0.397447,-0.38836 c 0.218615,-0.2136 0.486868,-0.47181 0.596111,-0.57376 l 0.198617,-0.18536 1.015823,-0.005 1.015782,-0.005 0.817587,-0.81711 0.817588,-0.81713 v -2.04745 -2.04749 l -0.06747,-0.0654 c -0.112625,-0.10924 -0.143881,-0.28434 -0.07495,-0.42022 0.02659,-0.0524 0.111062,-0.13595 0.171099,-0.16901 h -0.0012 c 0.06201,-0.0343 0.240954,-0.0267 0.315405,0.0134 0.113936,0.0612 0.178285,0.15947 0.187463,0.28665 0.0094,0.12889 -0.03094,0.22765 -0.127984,0.31391 l -0.0593,0.0528 v 2.10831 2.10827 l -0.922709,0.92283 -0.922711,0.92284 h -1.016163 -1.016209 l -0.370397,0.35515 c -0.203755,0.19532 -0.424216,0.40953 -0.489966,0.47603 l -0.119565,0.12082 z m -1.337466,-0.002 c -0.115901,-2.3e-4 -0.24011,-4.4e-4 -0.344247,-7e-4 v -0.23124 -0.40104 l 0.478127,-0.47944 0.478084,-0.4795 v -0.0987 c 0,-0.17014 0.07024,-0.28247 0.219942,-0.35177 v 4.2e-4 c 0.104239,-0.0484 0.175573,-0.0452 0.291988,0.0134 0.350019,0.17443 0.218497,0.67524 -0.177765,0.67717 h -0.09624 l -0.424924,0.42651 -0.42497,0.4265 v 0.40087 z m 6.129419,-0.0213 c 0.08098,0.002 0.15057,-0.0924 0.09794,-0.17277 -0.03497,-0.0534 -0.137748,-0.0681 -0.180114,-0.0257 -0.04237,0.0423 -0.02774,0.14519 0.02564,0.18016 0.01853,0.0118 0.03784,0.0178 0.05653,0.0183 z m -8.050045,-0.0319 c -0.216377,10e-4 -0.393589,-0.19887 -0.346942,-0.44753 0.02847,-0.15174 0.23503,-0.29571 0.388391,-0.27079 l 0.07187,0.0118 1.114233,-1.1136 1.114233,-1.11359 1.639708,-0.005 1.639751,-0.005 0.588076,-0.58774 0.58812,-0.58769 v -1.1397 -1.13962 l -0.05927,-0.0528 c -0.18534,-0.16519 -0.1624,-0.44954 0.04631,-0.57465 v 0 c 0.05818,-0.0348 0.107348,-0.0479 0.181055,-0.0481 0.330859,-5.7e-4 0.486356,0.3736 0.252458,0.60752 l -0.07636,0.0763 v 1.20172 1.20171 l -0.692897,0.69388 -0.692899,0.69388 h -1.635135 -1.635135 l -1.067656,1.06621 c -0.987698,0.98635 -1.067102,1.0704 -1.059835,1.12226 0.02077,0.14906 -0.0692,0.31455 -0.204303,0.37591 -0.05183,0.0235 -0.103853,0.0346 -0.153797,0.0348 z m 11.858782,-0.0684 c -0.111407,0.005 -0.225531,-0.0434 -0.307029,-0.14553 -0.04847,-0.0608 -0.05897,-0.0929 -0.06508,-0.2008 l -0.0072,-0.12839 -0.806308,-0.8081 -0.806309,-0.80811 -0.0052,-1.03804 -0.0052,-1.03804 -0.544577,-0.54432 -0.544616,-0.54435 v -1.56344 -1.52677 c 0.121027,0 0.226704,3.1e-4 0.344034,4.2e-4 v 1.4534 1.50262 l 0.545046,0.54479 0.545044,0.54479 v 1.03231 1.03232 l 0.757893,0.75874 0.75785,0.75875 0.130332,0.007 c 0.110315,0.007 0.141588,0.0168 0.20319,0.0654 0.09346,0.0746 0.144136,0.17753 0.144136,0.29306 0,0.10133 -0.0227,0.15662 -0.0976,0.23753 -0.06673,0.0721 -0.151752,0.10991 -0.238402,0.11444 z m -7.022686,-0.005 c 0.04309,0.002 0.09384,-0.0134 0.114726,-0.0432 0.04082,-0.0583 0.03749,-0.0854 -0.01722,-0.13999 l 2.2e-4,-8.2e-4 c -0.05945,-0.0588 -0.09553,-0.0585 -0.155931,0.002 -0.04862,0.0486 -0.04951,0.0992 -0.0029,0.15746 0.01227,0.0151 0.03531,0.0232 0.06115,0.0247 z m -4.838489,-0.17122 c 0.0572,2.2e-4 0.112507,-0.0467 0.112507,-0.11629 0,-0.0391 -0.01344,-0.0724 -0.03551,-0.0887 -0.110843,-0.081 -0.248144,0.0765 -0.151191,0.17346 0.02178,0.0218 0.04818,0.0316 0.07417,0.0316 z m 11.839125,-0.0672 c 0.08098,0.002 0.150616,-0.0924 0.09798,-0.17275 -0.03498,-0.0534 -0.137795,-0.0681 -0.180158,-0.0257 -0.04236,0.0423 -0.02774,0.14519 0.02564,0.18015 0.01853,0.0118 0.03785,0.0178 0.05653,0.0183 z m -1.569201,-0.20249 c 0.02845,-5.4e-4 0.05663,-0.0101 0.07614,-0.0297 0.04463,-0.0445 0.03806,-0.13427 -0.01243,-0.16969 v 0 c -0.0572,-0.0402 -0.102795,-0.0375 -0.148755,0.008 -0.04589,0.046 -0.04848,0.0916 -0.0084,0.14872 0.01988,0.0284 0.05695,0.0429 0.09353,0.0422 z m -10.674767,-0.93075 c -0.06344,0 -0.129564,-0.0173 -0.193106,-0.055 -0.129261,-0.0763 -0.200673,-0.25121 -0.159174,-0.38975 0.02887,-0.0965 0.124557,-0.20866 0.207336,-0.24323 0.03401,-0.0134 0.107281,-0.0259 0.162804,-0.0259 h 0.100929 l 0.989842,-0.98971 0.989841,-0.98971 1.418187,-0.005 1.418227,-0.005 0.08192,-0.0754 c 0.04504,-0.0415 0.106038,-0.0808 0.13558,-0.0874 0.02954,-0.007 0.06235,-0.0151 0.07287,-0.0181 l -4.16e-4,-2.2e-4 c 0.03274,-0.0101 0.03842,-0.0101 0.135967,0.019 0.391754,0.11629 0.309361,0.69849 -0.09884,0.69849 -0.108525,0 -0.192427,-0.038 -0.276901,-0.12503 l -0.06414,-0.0662 h -1.339346 -1.339304 l -0.942324,0.9416 -0.942365,0.94163 v 0.096 c -9.85e-4,0.2255 -0.167274,0.37966 -0.35758,0.37933 z m 12.943447,-2.2e-4 c -0.112662,0.002 -0.220986,-0.0516 -0.295919,-0.14552 -0.04913,-0.0615 -0.05907,-0.0929 -0.06538,-0.20294 l -0.0074,-0.13007 -0.600426,-0.60018 -0.600426,-0.60021 v -0.25336 -0.25335 l -0.05999,-0.0528 c -0.199798,-0.17557 -0.164367,-0.48392 0.0696,-0.60594 v 0 c 0.07208,-0.0376 0.243062,-0.039 0.31361,-0.002 0.08029,0.0415 0.169759,0.15309 0.193533,0.24138 0.03396,0.12621 -0.0055,0.24875 -0.113415,0.35122 -0.05909,0.0555 -0.0591,0.0585 -0.0591,0.24879 v 0.19255 l 0.549832,0.54799 0.549832,0.548 0.128408,0.007 c 0.107901,0.007 0.139921,0.0168 0.200797,0.0652 0.02867,0.0229 0.0527,0.0484 0.07299,0.0756 -5.68e-4,0.15292 -0.0012,0.30074 -0.0023,0.42694 -0.01181,0.0151 -0.02498,0.0292 -0.03961,0.0429 -0.07986,0.0739 -0.135832,0.0971 -0.234726,0.099 z m -4.494667,-0.0996 c 0.01971,-3e-4 0.04179,-0.005 0.06572,-0.0134 0.07122,-0.0272 0.07253,-0.15561 0.0022,-0.20268 h -2.18e-4 c -0.07086,-0.0474 -0.164434,0.0168 -0.164434,0.11208 0,0.0679 0.03756,0.10554 0.09671,0.1047 z m -5.164535,-0.002 c 0.107214,0 0.158535,-0.0971 0.09439,-0.17865 -0.04559,-0.058 -0.08661,-0.0639 -0.147646,-0.021 -0.02912,0.0203 -0.04252,0.0494 -0.04252,0.0917 0,0.075 0.02917,0.10788 0.09577,0.10788 z m 9.648219,-0.142 c 0.08098,0.002 0.150573,-0.0924 0.09794,-0.17275 -0.03498,-0.0534 -0.137751,-0.0681 -0.180114,-0.0257 -0.04236,0.0423 -0.02774,0.14519 0.02564,0.18011 0.01853,0.0118 0.03785,0.0178 0.05653,0.0183 z m -12.934727,-0.001 c 0.01311,-3e-4 0.02685,-0.003 0.04085,-0.008 0.06937,-0.0264 0.09787,-0.1388 0.04786,-0.18888 v 0 c -0.03485,-0.0348 -0.138974,-0.0277 -0.174903,0.0118 -0.06952,0.0768 -0.0059,0.18719 0.08619,0.18509 z m 13.223852,-1.1376 c -0.08807,-0.0151 -0.169727,-0.0647 -0.229642,-0.13982 -0.04839,-0.0608 -0.0589,-0.0931 -0.06521,-0.2008 l -0.0075,-0.12839 -0.127211,-0.12956 -0.127255,-0.12956 -0.0096,-0.63544 -0.0096,-0.63542 -0.631791,-0.005 -0.63179,-0.005 -0.558721,-0.55992 -0.55872,-0.55986 v -1.59723 -0.85892 c 0.107735,2.1e-4 0.241668,2.1e-4 0.344207,4.3e-4 v 0.79584 1.52732 l 0.454069,0.45437 0.454025,0.45438 h 0.698239 c 0.384007,2.2e-4 0.71757,0.005 0.741227,0.0118 l 0.04303,0.0118 v 0.72495 0.72495 l 0.07696,0.0835 c 0.05928,0.0644 0.07661,0.0792 0.145373,0.0862 -2e-6,0.0852 1.4e-5,0.17563 0,0.25619 -0.01044,0.003 -0.0198,0.0101 -0.02722,0.017 -0.04236,0.0423 -0.02774,0.14519 0.02564,0.18016 5.04e-4,3.2e-4 0.001,4.8e-4 0.0015,8.1e-4 0,0.084 0,0.17648 -2.19e-4,0.2554 z m -13.615534,-0.15259 v -0.60833 l 0.03415,0.0331 c 0.08723,0.0845 0.125077,0.16839 0.125077,0.27711 0,0.12705 -0.06253,0.23571 -0.159224,0.29815 z m 9.784149,-0.5251 c 0.05643,0.005 0.109432,-0.0381 0.109432,-0.11444 0,-0.0353 -0.01075,-0.0726 -0.02393,-0.0827 -0.107046,-0.0828 -0.251852,0.0264 -0.180115,0.13595 0.02564,0.0392 0.06075,0.0587 0.09461,0.0612 z m 2.147065,-0.33629 c 0.03868,0 0.123447,-0.0854 0.123447,-0.12436 0,-0.0168 -0.02111,-0.0516 -0.04692,-0.0773 -0.05382,-0.0538 -0.06031,-0.055 -0.125212,-0.0224 -0.06433,0.0324 -0.07503,0.1299 -0.02025,0.18462 0.02164,0.0215 0.05267,0.0393 0.06893,0.0393 z m -10.848815,-0.0135 c -0.06344,-2.1e-4 -0.129547,-0.0173 -0.193062,-0.0549 -0.129262,-0.0763 -0.200677,-0.25121 -0.159174,-0.38975 0.02889,-0.0965 0.124556,-0.20869 0.207333,-0.24328 0.03403,-0.0134 0.107297,-0.0257 0.162803,-0.0257 h 0.10098 l 1.410491,-1.41042 1.410496,-1.4104 v -0.0991 c 0,-0.17071 0.07008,-0.28294 0.219941,-0.35233 l -4.17e-4,4.5e-4 c 0.104239,-0.0484 0.175574,-0.0452 0.291988,0.0134 0.349656,0.17426 0.218546,0.67524 -0.177168,0.67718 h -0.09558 l -1.410495,1.41039 -1.410494,1.41042 v 0.0956 c -9.83e-4,0.22533 -0.167324,0.37945 -0.357622,0.37911 z m 4.592825,-0.005 c 0.02583,-10e-4 0.04967,-0.008 0.06445,-0.0237 0.03936,-0.0393 0.02788,-0.14351 -0.01953,-0.17679 v 0 c -0.05579,-0.039 -0.07626,-0.0376 -0.136606,0.0101 -0.05756,0.0452 -0.06329,0.0864 -0.0206,0.14737 0.02074,0.0296 0.06923,0.0452 0.112305,0.0432 z m -4.595048,-0.23958 c 0.01311,-3.2e-4 0.02687,-0.003 0.04085,-0.008 0.06937,-0.0264 0.09787,-0.13881 0.04786,-0.18887 -0.03485,-0.0348 -0.138958,-0.0277 -0.1749,0.0118 -0.06952,0.0768 -0.0059,0.18719 0.08619,0.18509 z m -1.080176,-0.50848 v -0.48004 l 0.106491,-0.10654 0.473342,-0.47359 v -0.099 c 0,-0.1705 0.07014,-0.28281 0.21994,-0.35216 l 2.18e-4,4e-4 c 0.0893,-0.0413 0.15094,-0.0449 0.240964,-0.0134 0.400761,0.1383 0.299201,0.702 -0.126791,0.70393 h -0.09619 l -0.424968,0.4265 z m 6.681003,-0.0371 c -0.147763,-0.005 -0.288284,-0.0965 -0.334806,-0.25314 -0.04213,-0.14183 -0.0089,-0.26004 0.103248,-0.36659 l 0.05905,-0.0561 v -2.04764 -1.04457 c 0.117078,-2.2e-4 0.227085,-3.1e-4 0.344249,-3.9e-4 v 0.96825 2.1049 l 0.06619,0.0642 c 0.08717,0.0845 0.125077,0.16838 0.125077,0.27691 0,0.0933 -0.04769,0.20891 -0.107936,0.26178 -0.07513,0.0659 -0.1664,0.0951 -0.255066,0.0926 z m -3.081609,-3.5e-4 c -0.08029,0.003 -0.160383,-0.0193 -0.220969,-0.0684 -0.03885,-0.0314 -0.08715,-0.0891 -0.107298,-0.12789 -0.04381,-0.0845 -0.04727,-0.23649 -0.0071,-0.31344 0.03137,-0.06 0.116708,-0.14452 0.174945,-0.17307 0.12822,-0.0629 0.305316,-0.0282 0.410654,0.0805 l 0.06537,0.0674 h 0.263998 0.263997 v -0.26398 -0.264 l -0.06744,-0.0654 c -0.112625,-0.10923 -0.143882,-0.28434 -0.07495,-0.42022 0.02658,-0.0524 0.111028,-0.13595 0.171056,-0.16901 v 0 c 0.02107,-0.0118 0.0857,-0.0217 0.143714,-0.0217 0.12622,-6.9e-4 0.214234,0.0412 0.294466,0.14031 0.111533,0.1378 0.08209,0.37841 -0.05996,0.49005 l -0.05312,0.0418 -0.0096,0.43338 -0.0096,0.43339 -0.433385,0.0101 -0.433388,0.0101 -0.04174,0.0531 c -0.06293,0.0802 -0.166534,0.12435 -0.269763,0.12771 z m 3.108529,-0.24708 c 0.02585,-0.001 0.04972,-0.008 0.06448,-0.0235 0.03936,-0.0393 0.02785,-0.14368 -0.01958,-0.17679 v 0 c -0.06093,-0.0427 -0.102088,-0.037 -0.147343,0.0205 -0.04756,0.0603 -0.049,0.0808 -0.0099,0.13662 0.02074,0.0296 0.0692,0.0452 0.112255,0.0432 z m -3.136092,0 c 0.04309,0.002 0.09384,-0.0134 0.114726,-0.0432 0.04082,-0.0583 0.03749,-0.0854 -0.01722,-0.13998 v -7.7e-4 c -0.05945,-0.0587 -0.09553,-0.0585 -0.15593,0.002 -0.04862,0.0486 -0.04951,0.0992 -0.0029,0.15746 0.01227,0.0151 0.03534,0.0232 0.06119,0.0247 z m 2.076426,-0.0973 c -0.147763,-0.005 -0.288281,-0.0965 -0.334803,-0.25314 -0.04213,-0.14183 -0.0089,-0.26004 0.103248,-0.3666 l 0.05905,-0.0561 v -1.70312 -1.04292 c 0.114893,-2.2e-4 0.228296,-3.3e-4 0.344247,-4.9e-4 v 0.96639 1.76068 l 0.06619,0.0642 c 0.08716,0.0845 0.125077,0.16837 0.125077,0.27691 0,0.0933 -0.04769,0.20891 -0.107937,0.26176 -0.07512,0.0659 -0.1664,0.0951 -0.255066,0.0926 z m 0.02697,-0.24694 c 0.02583,-0.001 0.04967,-0.008 0.06445,-0.0235 0.03934,-0.0393 0.02786,-0.14351 -0.01953,-0.17678 -0.06092,-0.0427 -0.102055,-0.037 -0.147293,0.0207 -0.04756,0.0603 -0.049,0.0808 -0.0099,0.13662 0.02074,0.0296 0.06923,0.0452 0.112305,0.0432 z m -4.750975,-0.44062 c 0.107213,0 0.158535,-0.0971 0.09439,-0.1787 -0.04559,-0.058 -0.08666,-0.0639 -0.147679,-0.021 -0.02912,0.0203 -0.04252,0.0494 -0.04252,0.0918 0,0.075 0.02921,0.10788 0.0958,0.10788 z m 12.305331,0 c -0.108533,0 -0.192432,-0.0378 -0.276904,-0.12503 l -0.06414,-0.0662 h -0.383818 -0.383818 l -0.238785,-0.2393 -0.238787,-0.23933 -0.0054,-0.747 -0.0054,-0.74695 0.134521,-0.13864 c 0.130892,-0.13511 0.134521,-0.14133 0.134521,-0.23647 0,-0.075 0.01395,-0.13881 0.04238,-0.19269 0.246335,10e-4 0.456307,0.002 0.631533,0.003 0.113769,0.21676 -0.02453,0.52711 -0.34177,0.52854 -0.09132,4e-4 -0.103315,0.007 -0.176908,0.086 l -0.07893,0.0857 v 0.6049 0.60487 l 0.137127,0.14149 0.137075,0.14133 h 0.327882 0.327881 l 0.05619,-0.059 c 0.106565,-0.11209 0.22473,-0.14536 0.366598,-0.10318 0.389667,0.11578 0.30525,0.69781 -0.101189,0.69781 z m -8.609108,-0.23742 c 0.05643,0.005 0.109432,-0.0381 0.109432,-0.1146 0,-0.0353 -0.01076,-0.0724 -0.02393,-0.0827 -0.107029,-0.0829 -0.251852,0.0264 -0.180116,0.13595 0.02564,0.0391 0.06075,0.0587 0.09461,0.0613 z m 8.628123,-0.0101 c 0.02584,-10e-4 0.04972,-0.008 0.06448,-0.0237 0.03936,-0.0393 0.02784,-0.14352 -0.01957,-0.17674 v 0 c -0.05579,-0.039 -0.07621,-0.0375 -0.136572,0.0101 -0.05755,0.0452 -0.06332,0.0864 -0.02064,0.14738 0.02074,0.0296 0.06924,0.0452 0.112299,0.0432 z m -5.471006,-0.6725 c 0.01731,0.002 0.03072,-0.008 0.05905,-0.0348 0.05309,-0.0499 0.06256,-0.11007 0.0249,-0.15796 v 0 c -0.05598,-0.0713 -0.17759,-0.0476 -0.199258,0.0387 -0.01428,0.0571 0.0087,0.0988 0.07581,0.13695 0.01729,0.0101 0.02909,0.0151 0.03949,0.0172 z m -5.662531,-0.0101 c -0.06342,-2.2e-4 -0.12948,-0.0173 -0.192977,-0.055 -0.129261,-0.0763 -0.200676,-0.25123 -0.159173,-0.38977 0.02887,-0.0965 0.124556,-0.20869 0.207336,-0.24326 0.03403,-0.0134 0.107247,-0.0259 0.16277,-0.0259 h 0.100979 l 0.894123,-0.89404 c 0.06725,-0.0672 0.126791,-0.12721 0.189899,-0.19067 0.158032,-4.5e-4 0.312364,-8.9e-4 0.4783,-0.001 -0.0992,0.0998 -0.200181,0.20148 -0.309935,0.31129 l -1.013601,1.01425 v 0.0954 c -9.83e-4,0.22513 -0.167425,0.37916 -0.357708,0.37881 z m -0.0022,-0.24464 c 0.01311,-3.2e-4 0.02687,-0.003 0.04085,-0.008 0.06937,-0.0264 0.09784,-0.13881 0.04783,-0.18887 v 0 c -0.03485,-0.0348 -0.138975,-0.0276 -0.174903,0.0118 -0.0695,0.0768 -0.0057,0.18719 0.08624,0.18507 z m -1.37477,-0.0992 c -0.06344,-2.2e-4 -0.12953,-0.0175 -0.193062,-0.0549 -0.129262,-0.0763 -0.200673,-0.25121 -0.159174,-0.38975 0.02887,-0.0965 0.124556,-0.20866 0.207336,-0.24323 0.03401,-0.0134 0.107264,-0.0259 0.16277,-0.0259 h 0.100896 l 0.549961,-0.5497 0.184643,-0.18456 c 0.144537,-8.1e-4 0.314063,-0.002 0.480094,-0.002 l -0.425867,0.42569 -0.54996,0.5497 v 0.0958 c -9.85e-4,0.22538 -0.167324,0.37953 -0.357623,0.37919 z m -0.0022,-0.24511 c 0.01311,-3e-4 0.02687,-0.003 0.04085,-0.008 0.06937,-0.0264 0.09787,-0.13881 0.04786,-0.18887 v 0 c -0.03485,-0.0348 -0.138957,-0.0277 -0.174901,0.0118 -0.0695,0.0768 -0.0059,0.18717 0.08619,0.18507 z m 3.631612,-0.199 c 0.01971,-3e-4 0.04179,-0.005 0.06572,-0.0135 0.07122,-0.0272 0.0725,-0.15561 0.0022,-0.20268 v 0 c -0.07087,-0.0474 -0.164468,0.0168 -0.164468,0.11209 0,0.0679 0.03759,0.10553 0.09674,0.10469 z m 4.383864,-0.27758 c 0.05643,0.005 0.109432,-0.0382 0.109432,-0.11461 0,-0.0353 -0.01075,-0.0724 -0.02388,-0.0825 -0.107045,-0.0829 -0.251895,0.0264 -0.180158,0.13595 0.02564,0.0392 0.06075,0.0587 0.09461,0.0612 z m -1.164957,-0.41276 c -0.0121,0 -0.02722,-0.0134 -0.03354,-0.0302 -0.0029,-0.007 -0.0052,-0.12654 -0.0072,-0.29646 0.129749,0 0.255428,0 0.384076,-2.2e-4 -0.199611,0.1956 -0.336616,0.32685 -0.343267,0.32685 z m 4.66064,-0.0365 c 0.01971,-3.1e-4 0.04184,-0.005 0.06576,-0.0134 0.07105,-0.0272 0.07231,-0.15561 0.0018,-0.20268 v 0 c -0.07087,-0.0474 -0.164484,0.0168 -0.164484,0.11209 0,0.0679 0.03756,0.10553 0.09669,0.10469 z"
           id="path1208" />
        <g
           id="g1214"
           transform="matrix(0.02323507,0,0,0.02323507,43.394055,-377.7226)">
          <rect
             y="1583.9167"
             x="-3235.9375"
             height="47.65625"
             width="70.3125"
             id="rect1210"
             style="opacity:1;fill:#ffff00;fill-opacity:1" />
          <path
             id="path1212"
             d="m -3477.1292,1642.1085 c -17.0557,-2.7588 -34.9872,-15.6529 -42.6564,-30.6731 -6.9672,-13.6453 -6.6769,-4.9295 -6.6769,-200.4879 0,-203.8133 -0.6905,-189.7242 10.1063,-206.2097 6.5067,-9.9349 13.3144,-15.8662 25.0371,-21.8139 l 8.1899,-4.1552 h 278.6667 278.6667 l 9.1023,4.2961 c 11.6259,5.4872 23.7188,17.552 29.0834,29.0158 2.5028,5.3484 4.3341,12.1798 5.2178,19.4644 2.1251,17.5178 1.0367,360.2798 -1.1661,367.2237 -7.2463,22.8429 -25.846,39.7895 -47.5708,43.3427 -9.3376,1.5273 -536.5577,1.5245 -546,0 z m 282.979,-25.2304 c 3.6958,-3.3023 4.3543,-4.7983 4.3543,-9.8926 0,-6.9621 -3.7254,-11.926 -10.6706,-14.2181 -13.4966,-4.4543 -24.2581,13.9444 -14.0986,24.1039 5.5306,5.5305 14.2295,5.5334 20.4149,0.01 z m 260.9073,-47.62 c 2.3208,-0.4641 7.1866,-3.5115 10.8129,-6.7719 11.3527,-10.207 10.6342,1.5757 10.6342,-174.3842 0,-168.9436 0.2409,-163.422 -7.534,-172.6619 -1.9075,-2.2669 -5.9427,-5.4454 -8.9671,-7.0632 l -5.4989,-2.9415 h -271.3334 c -262.3336,0 -271.4881,0.082 -276,2.4893 -6.5562,3.4972 -10.4703,7.3301 -13.7964,13.5107 l -2.8703,5.3333 v 161.3333 161.3334 l 3.5364,6 c 3.7714,6.3988 9.8992,11.6454 15.6234,13.3767 4.1279,1.2486 539.1928,1.6861 545.3932,0.446 z"
             style="fill:#000000;stroke-width:1.33333337" />
        </g>
        <path
           id="path1216"
           d="m -33.745062,-338.33779 c -0.08133,-0.0849 -0.091,-0.11612 -0.091,-0.29371 0,-0.18316 0.0079,-0.2067 0.101265,-0.30003 l 0.101265,-0.10134 0.580299,-0.0151 0.5803,-0.0151 0.0084,-0.65609 0.0084,-0.65609 0.09471,-0.0797 0.09471,-0.0797 h 1.234445 1.234441 l 0.09471,0.0948 0.09471,0.0948 0.0084,0.64883 0.0084,0.64883 0.564835,0.008 0.564835,0.008 0.101248,0.10133 c 0.09328,0.0933 0.101232,0.11696 0.101232,0.30003 0,0.17766 -0.0096,0.2088 -0.091,0.29371 l -0.091,0.0949 h -2.606225 -2.606226 z"
           style="fill:#000000;stroke-width:0.0309801" />
        <g
           id="g1300"
           transform="matrix(0.02212555,0,0,0.02212555,39.88388,-375.95519)">
          <g
             style="opacity:1"
             transform="matrix(-0.77570519,0.62972645,0.62972645,0.77570519,-6563.8156,61.735177)"
             id="g1232">
            <path
               id="path1218"
               d="m -1857.2603,3330.1951 12.9649,42.8089 141.7059,-52.4613 -11.4855,-36.0132 z"
               style="fill:url(#linearGradient1318);fill-opacity:1;fill-rule:evenodd;stroke:none" />
            <path
               id="path1220"
               d="m -1946.9191,3314.4269 c -1.2533,-1.9148 -3.4819,-15.6501 -4.9527,-30.5226 -3.2409,-32.7721 -9.1292,-44.1851 -22.3018,-43.2258 -5.1908,0.3783 -12.7692,3.9166 -19.0373,8.8889 -8.8437,7.0152 -10.7982,10.342 -12.9625,22.0657 -2.9912,16.2024 1.3787,45.9067 8.6282,58.6451 l 5.0973,8.9575 18.8377,-6.6451 c 21.9281,-7.7349 29.9457,-13.191 26.6911,-18.1637 z"
               style="fill:url(#radialGradient1320);fill-opacity:1;stroke-width:2.77499843" />
            <path
               id="path1222"
               d="m -1869.4335,3292.8053 c -65.1079,-13.0428 -165.4919,35.4479 -153.9762,38.6683 -9.962,-10.487 -3.0383,99.0192 47.3207,131.2129 107.083,-17.8558 132.7432,-69.1305 141.8875,-68.8142 3e-4,-21.4962 4.1687,-51.4879 -35.232,-101.067 z"
               style="fill:url(#linearGradient1322);fill-opacity:1;fill-rule:evenodd;stroke:none;stroke-width:0.97114652" />
            <path
               id="path1224"
               d="m -1907.6746,3382.6474 c -3.196,-14.5192 -13.0274,-38.5359 -18.4957,-45.183 -7.0865,-8.6137 -18.8794,-8.0396 -42.971,2.0921 -10.7393,4.5165 -10.7425,4.5197 -10.921,11.0097 -0.2678,9.7476 17.153,57.7828 23.2098,63.9977 6.954,7.1352 13.9963,5.0013 34.6427,-10.4978 l 16.5203,-12.4013 z"
               style="fill:#4d4d4d;stroke-width:2.03020382" />
            <path
               id="path1226"
               d="m -2046.914,3377.1182 c -13.6532,-14.5228 -11.7661,-42.9159 2.072,-44.1946 3.8311,-0.3539 -12.447,6.1261 -1.9114,-0.2863 30.0882,-18.3135 71.5244,-27.8618 76.8059,-8.9883 2.9548,10.5605 0.039,21.2773 -7.8765,28.9473 -13.148,12.7403 -44.2246,32.9632 -56.1251,31.4926 -6.0197,-0.6875 -9.8811,-3.6906 -12.9649,-6.9707 z"
               style="fill:url(#radialGradient1324);fill-opacity:1;stroke-width:2.35808372" />
            <path
               style="fill:url(#radialGradient1326);fill-opacity:1;stroke-width:2.35808372"
               d="m -2022.7452,3421.109 c -13.6532,-14.5227 -11.7661,-42.9159 2.072,-44.1946 3.8312,-0.3539 -12.447,6.1261 -1.9114,-0.2862 30.0882,-18.3137 71.5244,-27.862 76.8059,-8.9884 2.9548,10.5604 0.039,21.2772 -7.8765,28.9473 -13.148,12.7403 -44.2247,32.9632 -56.125,31.4926 -6.0198,-0.6876 -9.8812,-3.6906 -12.965,-6.9707 z"
               id="path1228" />
            <path
               id="path1230"
               d="m -1994.498,3463.4474 c -13.6531,-14.5227 -11.7661,-42.9159 2.072,-44.1946 3.8311,-0.3538 -12.447,6.1262 -1.9114,-0.2862 30.0883,-18.3136 71.5245,-27.8619 76.8059,-8.9884 2.9549,10.5605 0.039,21.2772 -7.8765,28.9474 -13.148,12.7403 -44.2247,32.9632 -56.125,31.4926 -6.0198,-0.6876 -9.8811,-3.6906 -12.965,-6.9708 z"
               style="fill:url(#radialGradient1328);fill-opacity:1;stroke-width:2.35808372" />
          </g>
          <g
             transform="matrix(0.80796657,-0.11648872,0.11648872,0.80796657,-1489.1773,-30.056241)"
             id="g1298">
            <path
               id="path1234"
               d="m -2557.032,1078.694 c 25.447,-19.6774 45.672,-13.6755 70.53,-31.1721 24.859,-17.4966 16.34,-8.1387 65.828,-47.79866 26.196,-20.9929 75.752,-39.3714 121.832,-41.1192 40.974,-1.5542 75,7.6543 101.004,25.8059 7.341,5.124 16.542,16.96776 20.473,24.87086 4.17,8.3832 6.442,16.5607 8.481,28.8833 1.517,9.1709 0.49,21.6367 -0.816,32.0123 -2.264,17.9841 -7.335,34.4173 -15.624,50.5493 -20.037,38.9966 -31.529,34.7145 -31.529,34.7145 0,0 -278.409,4.9462 -316.253,1.0961 -35.485,-11.322 -49.372,-58.1647 -23.926,-77.8423 z"
               style="fill:#ff0000;fill-opacity:1;fill-rule:evenodd;stroke:none" />
            <path
               transform="matrix(1.1528063,-0.20617233,0.20617233,1.1528063,-11304.232,-235.76086)"
               d="m 7431.3202,2454.7184 -16.7361,-16.6687 -21.833,9.0145 10.6812,-21.0679 -15.3201,-17.9788 23.3374,3.648 12.3647,-20.126 3.7422,23.3226 22.9618,5.5402 -21.0246,10.7661 z"
               id="path1236"
               style="fill:url(#linearGradient1330);fill-opacity:1;fill-rule:evenodd;stroke:none" />
            <g
               id="g1260"
               transform="translate(158.75338,-958.39466)">
              <rect
                 style="fill:url(#linearGradient1332);fill-opacity:1;fill-rule:evenodd;stroke:none"
                 id="rect1238"
                 width="54.204041"
                 height="215.51004"
                 x="-2551.9282"
                 y="2451.3184" />
              <path
                 style="fill:#0537f0;fill-opacity:1;fill-rule:evenodd;stroke:none"
                 d="m -2589.3124,2542.4007 c 4.963,-2.8382 13.255,-3.9049 20.905,-4.7476 11.699,-1.2891 22.466,-1.9525 35.498,-2.6884 28.116,-0.055 52.881,1.8334 73.18,9.9789 7.244,4.6977 17.992,42.2053 24.723,78.6765 1.42,10.7033 5.509,32.4077 8.847,50.363 4.695,25.2496 -17.013,-5.479 -17.484,2.961 -29.2165,-13.2128 -20.1229,-2.9223 -27.1029,-14.9297 -88.8368,-18.5735 -90.1966,-3.0293 -114.266,-10.8185 -1.917,-20.1998 -23.9861,17.8625 -24.7191,-0.6752 0,0 2.129,-27.8223 5.947,-54.8308 2.972,-21.0276 7.504,-47.3495 14.472,-53.2892 z"
                 id="path1240" />
              <path
                 id="path1242"
                 d="m -2548.5654,2584.0154 c 0,0 0.153,6.6134 -20.72,-46.2813 11.799,-1.2891 22.927,-1.6827 36.071,-2.4188 29.166,-1.4032 58.548,4.5411 58.548,4.5411 0,0 -6.829,23.2752 -15.657,43.2362 z"
                 style="fill:#ffff00;fill-opacity:1;fill-rule:evenodd;stroke:none" />
              <path
                 transform="matrix(1.3986825,0.13345235,-0.13345235,1.3986825,-6278.7634,-2032.1851)"
                 d="m 2936.5776,3070.9847 -4.8326,-2.5035 -4.1733,3.4936 0.8876,-5.3697 -4.6121,-2.8895 5.3811,-0.8151 1.3228,-5.2794 2.4381,4.8659 5.4297,-0.3733 -3.8742,3.8224 z"
                 id="path1244"
                 style="fill:#f8f8f2;fill-opacity:1;fill-rule:evenodd;stroke:none" />
              <path
                 style="fill:#f8f8f2;fill-opacity:1;fill-rule:evenodd;stroke:none"
                 id="path1246"
                 d="m 2936.5776,3070.9847 -4.8326,-2.5035 -4.1733,3.4936 0.8876,-5.3697 -4.6121,-2.8895 5.3811,-0.8151 1.3228,-5.2794 2.4381,4.8659 5.4297,-0.3733 -3.8742,3.8224 z"
                 transform="matrix(1.3986825,0.13345235,-0.13345235,1.3986825,-6260.2914,-2046.9622)" />
              <path
                 transform="matrix(1.3986825,0.13345235,-0.13345235,1.3986825,-6242.5134,-2061.2775)"
                 d="m 2936.5776,3070.9847 -4.8326,-2.5035 -4.1733,3.4936 0.8876,-5.3697 -4.6121,-2.8895 5.3811,-0.8151 1.3228,-5.2794 2.4381,4.8659 5.4297,-0.3733 -3.8742,3.8224 z"
                 id="path1248"
                 style="fill:#f8f8f2;fill-opacity:1;fill-rule:evenodd;stroke:none" />
              <path
                 style="fill:#f8f8f2;fill-opacity:1;fill-rule:evenodd;stroke:none"
                 id="path1250"
                 d="m 2936.5776,3070.9847 -4.8326,-2.5035 -4.1733,3.4936 0.8876,-5.3697 -4.6121,-2.8895 5.3811,-0.8151 1.3228,-5.2794 2.4381,4.8659 5.4297,-0.3733 -3.8742,3.8224 z"
                 transform="matrix(1.3986825,0.13345235,-0.13345235,1.3986825,-6221.5024,-2074.9001)" />
              <path
                 transform="matrix(1.3986825,0.13345235,-0.13345235,1.3986825,-6198.6434,-2075.3619)"
                 d="m 2936.5776,3070.9847 -4.8326,-2.5035 -4.1733,3.4936 0.8876,-5.3697 -4.6121,-2.8895 5.3811,-0.8151 1.3228,-5.2794 2.4381,4.8659 5.4297,-0.3733 -3.8742,3.8224 z"
                 id="path1252"
                 style="fill:#f8f8f2;fill-opacity:1;fill-rule:evenodd;stroke:none" />
              <path
                 style="fill:#f8f8f2;fill-opacity:1;fill-rule:evenodd;stroke:none"
                 id="path1254"
                 d="m 2936.5776,3070.9847 -4.8326,-2.5035 -4.1733,3.4936 0.8876,-5.3697 -4.6121,-2.8895 5.3811,-0.8151 1.3228,-5.2794 2.4381,4.8659 5.4297,-0.3733 -3.8742,3.8224 z"
                 transform="matrix(-1.3986825,0.13345235,0.13345235,1.3986825,1238.6948,-2032.1851)" />
              <path
                 transform="matrix(-1.3986825,0.13345235,0.13345235,1.3986825,1220.2235,-2046.9622)"
                 d="m 2936.5776,3070.9847 -4.8326,-2.5035 -4.1733,3.4936 0.8876,-5.3697 -4.6121,-2.8895 5.3811,-0.8151 1.3228,-5.2794 2.4381,4.8659 5.4297,-0.3733 -3.8742,3.8224 z"
                 id="path1256"
                 style="fill:#f8f8f2;fill-opacity:1;fill-rule:evenodd;stroke:none" />
              <path
                 style="fill:#f8f8f2;fill-opacity:1;fill-rule:evenodd;stroke:none"
                 id="path1258"
                 d="m 2936.5776,3070.9847 -4.8326,-2.5035 -4.1733,3.4936 0.8876,-5.3697 -4.6121,-2.8895 5.3811,-0.8151 1.3228,-5.2794 2.4381,4.8659 5.4297,-0.3733 -3.8742,3.8224 z"
                 transform="matrix(-1.3986825,0.13345235,0.13345235,1.3986825,1202.4448,-2061.2775)" />
            </g>
            <g
               id="g1296"
               transform="matrix(1.2925758,0,0,1.2925758,-5281.812,-2359.313)">
              <path
                 d="m 2428.7954,2752.8732 a 190.82535,187.90515 0 0 1 -80.0164,253.6498 190.82535,187.90515 0 0 1 -257.6713,-78.5393 190.82535,187.90515 0 0 1 79.5034,-253.8062 190.82535,187.90515 0 0 1 257.8296,78.034"
                 id="path1262"
                 style="fill:url(#linearGradient1334);fill-opacity:1;fill-rule:evenodd;stroke:none" />
              <path
                 id="path1264"
                 d="m 2317.0137,2938.41 c -4.6468,-1.3788 -13.3121,-4.3059 -19.256,-6.5045 -24.6764,-9.1277 -49.5341,-9.4503 -82.2468,-1.0675 -29.8897,7.6595 -51.0252,9.5581 -67.8124,6.0918 -20.3838,-4.209 -33.6651,-11.439 -46.4667,-25.2955 -26.7023,-28.9029 -32.353,-76.1618 -13.1807,-110.2383 6.4345,-11.4363 24.2787,-29.2031 34.7773,-34.6262 21.717,-11.2181 51.6228,-13.3586 84.3492,-6.0371 49.3206,11.034 56.8478,11.4607 84.2491,4.7763 44.6878,-10.9014 68.9946,-10.496 94.1174,1.5694 31.673,15.2114 47.9537,37.2537 53.5052,72.4405 6.738,42.707 -23.8639,87.1209 -68.2785,99.0953 -12.0322,3.244 -42.5265,3.1282 -53.7571,-0.2042 z"
                 style="fill:#666666;stroke-width:1.8892771" />
              <path
                 id="path1266"
                 d="m 2311.7899,2925.4881 c -6.2868,-1.7895 -14.8518,-4.5191 -19.033,-6.066 -11.0695,-4.095 -32.7666,-6.6992 -46.9137,-5.6307 -6.7705,0.5114 -21.015,3.011 -31.6543,5.5547 -38.8071,9.2784 -65.4867,7.4169 -86.7354,-6.052 -35.0349,-22.2072 -45.4042,-76.3959 -21.3061,-111.3432 10.587,-15.3535 25.1971,-25.5089 44.6973,-31.0683 14.9404,-4.2595 44.6746,-2.7149 70.3784,3.656 25.1618,6.2364 49.5597,6.6361 70.3432,1.1521 22.699,-5.9893 44.2068,-8.0942 58.2329,-5.6987 63.9301,10.9181 92.658,77.3142 55.0908,127.3258 -7.0937,9.4434 -25.0529,22.0121 -38.0858,26.654 -14.4757,5.1558 -39.7779,5.8532 -55.0143,1.5163 z"
                 style="fill:#666666;stroke-width:1.74153066" />
              <path
                 style="fill:#333333;fill-opacity:1;stroke-width:1.6879648"
                 d="m 2313.9227,2928.0416 c -4.2993,-1.1887 -12.3164,-3.7126 -17.8157,-5.6085 -22.8307,-7.8709 -45.8276,-8.1444 -76.0899,-0.905 -27.6509,6.6148 -47.2038,8.2571 -62.7349,5.2695 -18.8587,-3.6277 -31.1469,-9.8634 -42.9926,-21.8168 -24.7084,-24.9332 -29.9442,-65.7087 -12.2131,-95.1149 5.9507,-9.8689 22.4561,-25.2023 32.1678,-29.8836 20.0893,-9.6836 47.7559,-11.5363 78.0337,-5.2255 45.6304,9.5109 52.5942,9.8776 77.943,4.1047 41.3405,-9.4149 66.2754,-11.578 89.5196,-1.1725 30.9366,13.1184 41.9227,34.6426 47.0648,65.002 6.241,36.8478 -22.0623,75.1757 -63.1499,85.5163 -11.131,2.8014 -39.3424,2.7075 -49.7328,-0.1657 z"
                 id="path1268" />
              <path
                 style="fill:#333333;fill-opacity:1;stroke-width:1.55596149"
                 d="m 2309.0876,2916.8932 c -5.8165,-1.5428 -13.7407,-3.8963 -17.6093,-5.2302 -10.2415,-3.5312 -30.3148,-5.7739 -43.4026,-4.8492 -6.2636,0.4425 -19.4413,2.6021 -29.2837,4.799 -35.9003,8.0133 -60.583,6.4123 -80.2434,-5.2049 -32.416,-19.1544 -42.0185,-65.9083 -19.7305,-96.0668 9.7918,-13.2496 23.3064,-22.0149 41.3459,-26.8156 13.8212,-3.6781 45.3702,4.1496 69.1509,9.6416 19.8194,16.6069 41.8103,-0.7846 61.037,-5.5205 20.9987,-5.1722 40.896,-6.9926 53.8726,-4.9284 59.1461,9.408 85.7351,66.6913 50.9888,109.8504 -6.561,8.1495 -23.1736,18.9978 -35.2301,23.0055 -13.3911,4.4515 -36.799,5.0581 -50.8956,1.3191 z"
                 id="path1270" />
              <path
                 d="m 2239.4846,2812.1753 a 78.465889,78.465889 0 0 1 -32.9021,105.9197 78.465889,78.465889 0 0 1 -105.9524,-32.7967 78.465889,78.465889 0 0 1 32.6913,-105.985 78.465889,78.465889 0 0 1 106.0175,32.5858"
                 id="path1272"
                 style="fill:#0f0404;fill-opacity:1;fill-rule:evenodd;stroke:none" />
              <path
                 style="fill:#e6e7ec;fill-opacity:1;fill-rule:evenodd;stroke:none"
                 id="path1274"
                 d="m 2223.8926,2819.6948 a 63.185688,63.185688 0 0 1 -26.4949,85.2933 63.185688,63.185688 0 0 1 -85.3196,-26.41 63.185688,63.185688 0 0 1 26.3251,-85.3458 63.185688,63.185688 0 0 1 85.372,26.2401" />
              <path
                 id="path1276"
                 d="m 2172.1312,2803.2764 a 46.203472,46.203472 0 0 0 -22.2227,5.3613 46.203472,46.203472 0 0 0 -19.25,62.4082 46.203472,46.203472 0 0 0 62.3887,19.3106 46.203472,46.203472 0 0 0 24.1406,-47.5 18.534496,18.534496 0 0 1 -7.3887,7.1035 18.534496,18.534496 0 0 1 -25.0273,-7.7481 18.534496,18.534496 0 0 1 7.7227,-25.0351 18.534496,18.534496 0 0 1 9.8281,-2.0918 46.203472,46.203472 0 0 0 -30.1914,-11.8086 z"
                 style="fill:url(#linearGradient1336);fill-opacity:1;fill-rule:evenodd;stroke:none" />
              <g
                 transform="translate(-749.23607,144.38789)"
                 id="g1282">
                <path
                   d="m 2941.246,2694.2096 a 21.474873,21.474873 0 0 1 -9.0048,28.9886 21.474873,21.474873 0 0 1 -28.9975,-8.976 21.474873,21.474873 0 0 1 8.9471,-29.0064 21.474873,21.474873 0 0 1 29.0153,8.9182"
                   id="path1278"
                   style="fill:#070c0b;fill-opacity:1;fill-rule:evenodd;stroke:none" />
                <path
                   style="fill:#ecf2f1;fill-opacity:1;fill-rule:evenodd;stroke:none"
                   id="path1280"
                   d="m 2934.2622,2700.2404 a 4.9557385,4.9557385 0 0 1 -2.0781,6.6896 4.9557385,4.9557385 0 0 1 -6.6917,-2.0713 4.9557385,4.9557385 0 0 1 2.0647,-6.6938 4.9557385,4.9557385 0 0 1 6.6959,2.058" />
              </g>
              <path
                 style="fill:#0f0404;fill-opacity:1;fill-rule:evenodd;stroke:none"
                 id="path1284"
                 d="m 2418.3684,2813.4341 a 78.465889,78.465889 0 0 1 -32.9021,105.9197 78.465889,78.465889 0 0 1 -105.9524,-32.7967 78.465889,78.465889 0 0 1 32.6913,-105.985 78.465889,78.465889 0 0 1 106.0175,32.5858" />
              <path
                 d="m 2402.7764,2820.9536 a 63.185688,63.185688 0 0 1 -26.4949,85.2932 63.185688,63.185688 0 0 1 -85.3196,-26.4099 63.185688,63.185688 0 0 1 26.3251,-85.3459 63.185688,63.185688 0 0 1 85.372,26.2402"
                 id="path1286"
                 style="fill:#e6e7ec;fill-opacity:1;fill-rule:evenodd;stroke:none" />
              <path
                 style="fill:url(#linearGradient1338);fill-opacity:1;fill-rule:evenodd;stroke:none"
                 d="m 2350.1312,2803.2764 a 46.203472,46.203472 0 0 0 -22.2227,5.3613 46.203472,46.203472 0 0 0 -19.25,62.4082 46.203472,46.203472 0 0 0 62.3887,19.3106 46.203472,46.203472 0 0 0 24.1406,-47.5 18.534496,18.534496 0 0 1 -7.3887,7.1035 18.534496,18.534496 0 0 1 -25.0273,-7.7481 18.534496,18.534496 0 0 1 7.7227,-25.0351 18.534496,18.534496 0 0 1 9.8281,-2.0918 46.203472,46.203472 0 0 0 -30.1914,-11.8086 z"
                 id="path1288" />
              <g
                 id="g1294"
                 transform="translate(-570.3522,145.64661)">
                <path
                   style="fill:#070c0b;fill-opacity:1;fill-rule:evenodd;stroke:none"
                   id="path1290"
                   d="m 2941.246,2694.2096 a 21.474873,21.474873 0 0 1 -9.0048,28.9886 21.474873,21.474873 0 0 1 -28.9975,-8.976 21.474873,21.474873 0 0 1 8.9471,-29.0064 21.474873,21.474873 0 0 1 29.0153,8.9182" />
                <path
                   d="m 2934.2622,2700.2404 a 4.9557385,4.9557385 0 0 1 -2.0781,6.6896 4.9557385,4.9557385 0 0 1 -6.6917,-2.0713 4.9557385,4.9557385 0 0 1 2.0647,-6.6938 4.9557385,4.9557385 0 0 1 6.6959,2.058"
                   id="path1292"
                   style="fill:#ecf2f1;fill-opacity:1;fill-rule:evenodd;stroke:none" />
              </g>
            </g>
          </g>
        </g>
        <rect
           style="opacity:1;fill:#000000;fill-opacity:1;stroke-width:0.0311905"
           id="rect1302"
           width="7.0183635"
           height="1.6023079"
           x="-34.450832"
           y="-341.24496" />
        <circle
           style="opacity:1;fill:#dfdf08;fill-opacity:1;stroke-width:0.02363567"
           id="circle1304"
           cx="-31.045309"
           cy="-340.3974"
           r="0.34271735" />
        <circle
           r="0.18570048"
           cy="-340.3974"
           cx="-31.045309"
           id="circle1306"
           style="opacity:1;fill:#000000;fill-opacity:1;stroke-width:0.01280692" />
        <g
           transform="matrix(0.02396286,-0.00270202,0.00270202,0.02396286,-50.337573,-355.43549)"
           id="g1314">
          <path
             style="opacity:1;fill:#800000;fill-opacity:1;stroke:none;stroke-width:9.52024269;stroke-miterlimit:4;stroke-dasharray:none;stroke-opacity:1"
             d="m 804.90084,540.11855 c -13.17071,23.62991 -34.69671,47.89594 -77.49728,47.89594 -42.80056,0 -64.79693,-25.20681 -77.49727,-47.89594 52.99031,13.93551 82.98749,20.82484 154.99455,0 z"
             id="path1308" />
          <path
             style="opacity:1;fill:#ffffff;fill-opacity:1;stroke:none;stroke-width:9.52024269;stroke-miterlimit:4;stroke-dasharray:none;stroke-opacity:1"
             d="m 655.65429,541.72069 c 15.77035,13.72446 38.17652,24.41797 70.96875,24.41797 32.79685,0 54.9686,-10.29694 70.72852,-24.00586 -64.15186,17.57911 -94.19384,11.95211 -141.69727,-0.41211 z"
             id="path1310" />
          <path
             style="opacity:1;fill:#ff0000;fill-opacity:1;stroke:none;stroke-width:9.52024269;stroke-miterlimit:4;stroke-dasharray:none;stroke-opacity:1"
             d="m 724.76469,572.11302 c -14.91713,0 -27.67162,2.22578 -38.64453,5.92969 11.06882,6.06207 24.62456,9.93554 41.37891,9.93554 15.90963,0 28.8743,-3.35641 39.56836,-8.7832 -11.73194,-4.41265 -25.63959,-7.08203 -42.30274,-7.08203 z"
             id="path1312" />
        </g>
      </g>
    </g>
  </g>
</svg>
